HIERARCHY
ROOT Hips
{
	OFFSET 0.000000 0.000000 0.000000
	CHANNELS 6 Xposition Yposition Zposition Zrotation Yrotation Xrotation 
	JOINT LHipJoint
	{
		OFFSET 0.000000 0.000000 0.000000
		CHANNELS 3 Zrotation Yrotation Xrotation
		JOINT LeftUpLeg
		{
			OFFSET 1.363060 -1.794630 0.839290
			CHANNELS 3 Zrotation Yrotation Xrotation
			JOINT LeftLeg
			{
				OFFSET 2.448110 -6.726130 0.000000
				CHANNELS 3 Zrotation Yrotation Xrotation
				JOINT LeftFoot
				{
					OFFSET 2.562200 -7.039590 0.000000
					CHANNELS 3 Zrotation Yrotation Xrotation
					JOINT LeftToeBase
					{
						OFFSET 0.157640 -0.433110 2.322550
						CHANNELS 3 Zrotation Yrotation Xrotation
						End Site
						{
							OFFSET 0.000000 0.000000 0.000000
						}
					}
				}
			}
		}
	}
	JOINT RHipJoint
	{
		OFFSET 0.000000 0.000000 0.000000
		CHANNELS 3 Zrotation Yrotation Xrotation
		JOINT RightUpLeg
		{
			OFFSET -1.305520 -1.794630 0.839290
			CHANNELS 3 Zrotation Yrotation Xrotation
			JOINT RightLeg
			{
				OFFSET -2.542530 -6.985550 0.000000
				CHANNELS 3 Zrotation Yrotation Xrotation
				JOINT RightFoot
				{
					OFFSET -2.568260 -7.056230 0.000000
					CHANNELS 3 Zrotation Yrotation Xrotation
					JOINT RightToeBase
					{
						OFFSET -0.164730 -0.452590 2.363150
						CHANNELS 3 Zrotation Yrotation Xrotation
						End Site
						{
							OFFSET 0.000000 0.000000 0.000000
						}
					}
				}
			}
		}
	}
	JOINT LowerBack
	{
		OFFSET 0.000000 0.000000 0.000000
		CHANNELS 3 Zrotation Yrotation Xrotation
		JOINT Spine
		{
			OFFSET 0.028270 2.035590 -0.193380
			CHANNELS 3 Zrotation Yrotation Xrotation
			JOINT Spine1
			{
				OFFSET 0.056720 2.048850 -0.042750
				CHANNELS 3 Zrotation Yrotation Xrotation
				JOINT Neck
				{
					OFFSET 0.000000 0.000000 0.000000
					CHANNELS 3 Zrotation Yrotation Xrotation
					JOINT Neck1
					{
						OFFSET -0.054170 1.746240 0.172020
						CHANNELS 3 Zrotation Yrotation Xrotation
						JOINT Head
						{
							OFFSET 0.104070 1.761360 -0.123970
							CHANNELS 3 Zrotation Yrotation Xrotation
							End Site
							{
								OFFSET 0.000000 0.000000 0.000000
							}
						}
					}
				}
				JOINT LeftShoulder
				{
					OFFSET 0.000000 0.000000 0.000000
					CHANNELS 3 Zrotation Yrotation Xrotation
					JOINT LeftArm
					{
						OFFSET 3.362410 1.200890 -0.311210
						CHANNELS 3 Zrotation Yrotation Xrotation
						JOINT LeftForeArm
						{
							OFFSET 4.983000 -0.000000 -0.000000
							CHANNELS 3 Zrotation Yrotation Xrotation
							JOINT LeftHand
							{
								OFFSET 3.483560 -0.000000 -0.000000
								CHANNELS 3 Zrotation Yrotation Xrotation
								JOINT LeftFingerBase
								{
									OFFSET 0.000000 0.000000 0.000000
									CHANNELS 3 Zrotation Yrotation Xrotation
									JOINT LeftHandIndex1
									{
										OFFSET 0.715260 -0.000000 -0.000000
										CHANNELS 3 Zrotation Yrotation Xrotation
										End Site
										{
											OFFSET 0.000000 0.000000 0.000000
										}
									}
								}
								JOINT LThumb
								{
									OFFSET 0.000000 0.000000 0.000000
									CHANNELS 3 Zrotation Yrotation Xrotation
									End Site
									{
										OFFSET 0.000000 0.000000 0.000000
									}
								}
							}
						}
					}
				}
				JOINT RightShoulder
				{
					OFFSET 0.000000 0.000000 0.000000
					CHANNELS 3 Zrotation Yrotation Xrotation
					JOINT RightArm
					{
						OFFSET -3.136600 1.374050 -0.404650
						CHANNELS 3 Zrotation Yrotation Xrotation
						JOINT RightForeArm
						{
							OFFSET -5.241900 -0.000000 -0.000000
							CHANNELS 3 Zrotation Yrotation Xrotation
							JOINT RightHand
							{
								OFFSET -3.444170 -0.000000 -0.000000
								CHANNELS 3 Zrotation Yrotation Xrotation
								JOINT RightFingerBase
								{
									OFFSET 0.000000 0.000000 0.000000
									CHANNELS 3 Zrotation Yrotation Xrotation
									JOINT RightHandIndex1
									{
										OFFSET -0.622530 -0.000000 -0.000000
										CHANNELS 3 Zrotation Yrotation Xrotation
										End Site
										{
											OFFSET 0.000000 0.000000 0.000000
										}
									}
								}
								JOINT RThumb
								{
									OFFSET 0.000000 0.000000 0.000000
									CHANNELS 3 Zrotation Yrotation Xrotation
									End Site
									{
										OFFSET 0.000000 0.000000 0.000000
									}
								}
							}
						}
					}
				}
			}
		}
	}
}
MOTION
Frames: 4
Frame Time: 0.008333
-30.371681 17.464658 1.012376 20.430446 87.367817 16.166720 1.767549 -2.364902 -0.221786 -16.309291 4.269863 13.939856 -1.797497 -0.151205 0.033304 -0.644590 8.484322 -10.398736 0.137300 -2.387900 -6.578900 -6.111275 4.227972 -6.926558 19.993168 -12.470394 16.489168 -0.586041 -2.940556 2.830850 -0.427930 2.196446 -13.590036 -0.002100 -0.293500 0.806400 -1.134212 1.090072 8.086589 -0.524584 1.409024 -2.385996 0.887716 0.325236 2.733359 2.053485 3.708660 -18.010142 2.805682 4.257772 11.668674 -1.003200 2.279800 12.252800 4.987674 -0.877304 1.035037 -3.519469 -0.132688 -0.009211 -1.441121 -0.334822 -0.000068 -0.059395 -0.017188 -0.000034 -0.059395 -0.017188 -0.000000 0.000000 0.000000 0.000000 0.000000 0.000000 0.000000 -3.316403 0.075780 1.443036 3.498901 -1.212544 0.003528 -0.289280 -0.080559 0.000057 -0.040514 0.018884 0.000028 -0.040514 0.018884 0.000000 0.000000 0.000000 0.000000 0.000000 0.000000 0.000000 
-30.376390 17.471005 1.012069 16.664056 87.397732 12.476741 1.622376 -2.370543 -0.184441 -15.456523 5.231010 13.166125 -1.726335 0.045642 0.581080 -0.532556 7.412959 -9.777687 0.151700 -2.510000 -6.917500 -6.290195 4.155884 -6.934334 20.563822 -12.191456 16.408100 -0.582133 -2.931862 2.799706 -0.427043 1.866828 -13.702237 -0.002500 -0.322200 0.885200 -0.837704 1.131111 8.048453 -0.522387 1.480929 -2.389362 0.660822 0.371425 2.727343 2.155421 3.682870 -18.012957 2.779246 4.181676 11.637076 -1.042900 2.253500 12.236200 4.992783 -0.879023 1.036802 -3.541616 -0.136600 -0.009172 -1.433304 -0.332977 -0.000068 -0.058619 -0.017030 -0.000034 -0.058619 -0.017030 -0.000000 0.000000 0.000000 0.000000 0.000000 0.000000 0.000000 -3.306208 0.078486 1.443068 3.472608 -1.220612 0.003420 -0.279756 -0.078399 0.000056 -0.040184 0.018933 0.000028 -0.040184 0.018933 0.000000 0.000000 0.000000 0.000000 0.000000 0.000000 0.000000 
-30.378846 17.471414 1.012069 16.456458 87.418527 12.312582 1.611753 -2.370607 -0.178094 -15.325819 5.400864 12.952750 -1.713654 0.089087 0.697441 -0.512359 7.210942 -9.651705 0.145000 -2.454300 -6.763000 -6.302845 4.147177 -6.931995 20.636648 -12.118460 16.361587 -0.581371 -2.933511 2.804708 -0.426741 1.736335 -13.755587 -0.001900 -0.281500 0.773500 -0.819942 1.127382 8.021159 -0.518434 1.475185 -2.396392 0.664328 0.369463 2.709630 2.144139 3.687575 -17.974258 2.789001 4.189331 11.600182 -1.034000 2.255600 12.201600 4.992620 -0.879705 1.037309 -3.541888 -0.135941 -0.009175 -1.433440 -0.332943 -0.000068 -0.058627 -0.017033 -0.000034 -0.058627 -0.017033 -0.000000 0.000000 0.000000 0.000000 0.000000 0.000000 0.000000 -3.307055 0.079277 1.443850 3.472651 -1.221318 0.003418 -0.279470 -0.078380 0.000056 -0.040181 0.018942 0.000028 -0.040181 0.018942 0.000000 0.000000 0.000000 0.000000 0.000000 0.000000 0.000000 
-30.380484 17.470800 1.012785 16.432943 87.426740 12.349473 1.607803 -2.366528 -0.182908 -15.486849 4.936235 13.102952 -1.741392 0.035630 0.554620 -0.562572 7.660189 -9.885022 0.145600 -2.458700 -6.775100 -6.307193 4.137759 -6.923508 20.672214 -12.060259 16.290051 -0.584907 -2.933881 2.806680 -0.426521 1.752943 -13.747613 -0.003800 -0.395800 1.087700 -0.792500 1.146390 7.968529 -0.529916 1.501577 -2.403335 0.606716 0.385325 2.727005 2.181362 3.647491 -18.045151 2.767542 4.124770 11.661988 -1.060700 2.231500 12.262300 4.992058 -0.875402 1.034904 -3.546810 -0.139122 -0.009170 -1.431409 -0.332681 -0.000068 -0.058437 -0.016987 -0.000034 -0.058437 -0.016987 -0.000000 0.000000 0.000000 0.000000 0.000000 0.000000 0.000000 -3.305136 0.078795 1.441929 3.465539 -1.220310 0.003383 -0.277228 -0.077715 0.000055 -0.040100 0.018918 0.000028 -0.040100 0.018918 0.000000 0.000000 0.000000 0.000000 0.000000 0.000000 0.000000 
